<svg xmlns="http://www.w3.org/2000/svg"
     width="104"
     height="64"
     fill="none">
    <path d="M63.752 39.014h2.083c.332 0 .377-.042.377-.352v-6.895c.679-.684 1.241-.994 1.709-.994.272 0 .585.061.898.164.068.02.11.042.158.042.068 0 .136-.06.178-.187l.698-1.678c.019-.084.041-.164.041-.23 0-.225-.604-.454-1.275-.454-.766 0-1.479.29-2.037.806-.23.207-.302.31-.77.81-.245-.993-.581-1.616-.849-1.616a.913.913 0 0 0-.271.061l-1.811.6c-.144.042-.23.123-.23.207 0 .06.022.126.04.187.54 1.12.68 1.697.68 2.878v6.295c0 .31.041.352.385.352l-.004.004ZM44.348 39.014h2.09c.336 0 .381-.042.381-.352v-6.956c0-2.26-.902-3.272-2.894-3.272-1.282 0-2.252.374-3.372 1.326-.246-.91-.536-1.43-.815-1.43-.038 0-.151.02-.215.043l-2 .684c-.11.042-.177.126-.177.187s.022.126.068.207c.313.623.475 1.368.475 2.258v6.957c0 .31.041.352.377.352h2.09c.34 0 .385-.042.385-.352v-7.27c.781-.623 1.302-.849 1.95-.849.906 0 1.283.52 1.283 1.74v6.379c0 .31.042.352.382.352l-.008-.004ZM27.047 28.45c-.05 0-.136 0-.178.022l-2.09.413c-.317.061-.332.084-.332.374v6.066c0 1.904.129 2.504.762 3.146.54.581 1.411.89 2.536.89 1.279 0 2.086-.309 3.097-1.2.177.727.426 1.14.672 1.14.045 0 .128-.015.249-.043l1.886-.393c.15-.02.219-.08.219-.165a.346.346 0 0 0-.068-.187c-.336-.62-.423-1.097-.423-2.11v-7.621c0-.23-.075-.333-.203-.333l-.223.023-2.09.413c-.313.061-.336.084-.336.374v7.267c-.675.52-1.233.745-1.867.745-.513 0-.959-.206-1.17-.558-.158-.272-.2-.581-.2-1.514v-6.417c0-.249-.072-.333-.245-.333h.004ZM23.926 12.27l14.148 9.555 5.358-13.301 17.939 9.383 7.451-12.9 13.394 14.716 3.999-3.134L69.652 0 54.108 11.887 42.866 3.134 32.698 15.346l-8.772-7.854-6.885 10.606 2.924 2.485 3.961-8.313ZM75.622 37.336c-.85 0-1.868-.29-3.056-.89a.508.508 0 0 0-.2-.062c-.09 0-.181.061-.23.206l-.51 1.266c-.045.122-.071.164-.071.248 0 .145.086.207.494.394a9.15 9.15 0 0 0 3.814.871c1.257 0 2.09-.31 2.758-.951a3.35 3.35 0 0 0 1.03-2.4c0-.83-.332-1.576-.92-2.114-.468-.413-.947-.643-2.6-1.243-1.234-.436-1.475-.642-1.475-1.2 0-.684.51-1.055 1.43-1.055.637 0 1.418.187 2.275.54.068.018.132.041.177.041.087 0 .159-.061.223-.187l.566-1.181a.545.545 0 0 0 .064-.23c0-.393-2.023-.951-3.437-.951-2.34 0-4 1.387-4 3.375 0 .806.321 1.513.902 2.03.404.351.894.6 2.332 1.12 1.464.496 1.732.725 1.732 1.303 0 .642-.521 1.078-1.306 1.078l.008-.008ZM87.299 28.43c-2.97 0-4.92 2.217-4.92 5.55 0 1.884.603 3.478 1.683 4.369.78.68 1.905 1.013 3.35 1.013 1.09 0 2.105-.188 3.09-.581.743-.29.92-.417.92-.642 0-.085 0-.104-.064-.226l-.562-1.242c-.072-.123-.136-.188-.253-.188a.595.595 0 0 0-.287.085c-.856.412-1.731.642-2.561.642-1.656 0-2.441-.83-2.49-2.61h6.04c.404 0 .494-.104.494-.52 0-3.77-1.483-5.654-4.44-5.654v.004Zm-2.049 4.246c.204-1.697.717-2.362 1.868-2.362 1.15 0 1.584.642 1.626 2.362H85.25ZM7.515 36.877c-.045-.122-.113-.206-.222-.206a.67.67 0 0 0-.204.042c-.83.31-1.03.352-1.483.352-.671 0-.826-.226-.826-1.327v-5.03h2.218c.272 0 .34-.061.404-.31l.294-1.223c.02-.06.02-.126.02-.187 0-.164-.091-.206-.382-.206H4.78v-2.92c0-.249-.072-.333-.226-.333h-.208l-2.06.268c-.317.041-.358.084-.358.37v2.61H.38c-.336 0-.381.043-.381.352v1.224c0 .31.045.351.381.351h1.547v5.405c0 1.158.113 1.678.49 2.194.513.703 1.366 1.059 2.54 1.059.739 0 1.505-.127 2.267-.352.558-.164.686-.248.686-.455 0-.061 0-.084-.045-.23l-.354-1.448h.003ZM82.876 43.853c-.754-.214-1.791.91-1.791.91s-3.803 3.757-7.546 8.026c-3.743 4.27-4.591 6.05-4.591 6.05s-1.102-3.152-2.894-6.401c-1.792-3.25-3.177-6.242-4.592-6.529-1.415-.286-3.018.382-3.018.382s-3.044 1.384-8.387 4.786c-3.244 2.064-6.515 4.613-6.515 4.613s-.853-2.989-2.14-6.146c-1.32-3.241-3.561-6.91-4.214-7.006-1.192-.176-4.934 2.32-8.111 4.778-2.807 2.17-5.158 4.33-5.158 4.33s-.437-1.517-1.037-3.122c-.581-1.556-2.283-4.9-2.724-5.057-.441-.16-1.554-.103-2.026.122-1.841.872-1.822 1.88-1.603 2.676.218.795 1.415 3.249 2.105 4.235.69.986 2.61 3.83 3.773 4.778 1.603 1.307 1.886.86 2.64.573.348-.134 2.706-1.75 3.679-2.55.973-.795 4.339-3.726 4.339-3.726s2.407 3.015 4.81 5.764c2.056 2.354 4.135 4.48 4.339 4.713.66.764.69.86 1.697.19.306-.202 2.728-1.685 5.188-3.374 2.928-2.01 5.942-4.27 5.942-4.27s1.51 1.403 6.791 5.799c5.282 4.395 4.369 3.696 5.5 4.49 1.133.796 1.668 1.147 2.329 1.117.848-.042 1.95-1.273 1.95-1.273s3.331-2.962 5.312-4.969c1.98-2.007 8.3-9.173 8.3-9.173s1.257-1.273.913-2.168c-.37-.959-1.607-2.09-3.27-2.564l.01-.004ZM17.441 32.283v6.38c0 .309.046.35.381.35h2.083c.343 0 .389-.041.389-.35v-6.98c0-1.059-.11-1.613-.457-2.133-.468-.703-1.392-1.12-2.464-1.12-1.192 0-2.18.394-3.1 1.2v-5.26c0-.248-.069-.35-.235-.35-.037 0-.128 0-.188.018l-2.09.394c-.321.061-.34.084-.34.37v13.856c0 .31.049.352.385.352h2.09c.336 0 .38-.042.38-.352v-7.27c.744-.623 1.261-.848 1.929-.848.898 0 1.241.478 1.241 1.739l-.004.004ZM59.66 34.083c0-3.769-1.48-5.653-4.445-5.653-2.966 0-4.912 2.217-4.912 5.55 0 1.884.607 3.478 1.679 4.369.784.68 1.905 1.013 3.346 1.013a8.227 8.227 0 0 0 3.101-.581c.74-.29.92-.417.92-.642 0-.085 0-.104-.07-.226l-.563-1.242c-.064-.123-.128-.187-.245-.187a.597.597 0 0 0-.29.084c-.86.413-1.732.642-2.566.642-1.66 0-2.445-.83-2.486-2.61h6.044c.4 0 .49-.104.49-.52l-.004.003Zm-6.486-1.406c.203-1.697.717-2.363 1.867-2.363 1.151 0 1.589.643 1.642 2.363h-3.509ZM104.001 34.083c0-3.769-1.483-5.653-4.46-5.653s-4.908 2.217-4.908 5.55c0 1.884.604 3.478 1.686 4.369.781.68 1.91 1.013 3.34 1.013 1.101 0 2.119-.188 3.1-.581.74-.29.917-.417.917-.642 0-.085 0-.104-.068-.226l-.554-1.242c-.068-.123-.136-.187-.249-.187a.592.592 0 0 0-.287.084c-.857.413-1.736.642-2.562.642-1.656 0-2.445-.83-2.49-2.61h6.037c.407 0 .498-.104.498-.52v.003Zm-6.49-1.406c.2-1.697.717-2.363 1.86-2.363 1.144 0 1.596.643 1.642 2.363h-3.502Z"
          fill="#000" />
</svg>